<svg style="height:65px;width:200px">
<g id="SvgjsG1266" featurekey="v37d4h-0" transform="matrix(0.565433639574331,0,0,0.565433639574331,19.208392850671984,12.462296714537018)" fill="#ffb400"><path xmlns="http://www.w3.org/2000/svg" d="M30.1,42.5l2.7-12.4c0-0.1,0-0.3-0.1-0.4c-0.1-0.1-0.2-0.2-0.4-0.2H10l-1.2-4.4c-0.1-0.4-0.5-0.7-0.9-0.7H2.4  c-0.5,0-1,0.4-1,1c0,0.5,0.4,1,1,1h4.7c0,0,5.6,20.3,5.7,20.4c-0.2,0.4-0.3,0.8-0.3,1.2c0,1.5,1.2,2.7,2.7,2.7s2.7-1.2,2.7-2.7  c0-0.3,0-0.5-0.1-0.8h8.7c-0.1,0.2-0.1,0.5-0.1,0.8c0,1.5,1.2,2.7,2.7,2.7c1.5,0,2.7-1.2,2.7-2.7c0-1.3-1-2.4-2.2-2.7  c-0.1-0.1-15.2-0.1-15.2-0.1l-0.7-2.4h15.9C29.8,42.9,30,42.7,30.1,42.5z M29.1,47c0.6,0,1,0.5,1,1c0,0.6-0.5,1-1,1  c-0.6,0-1-0.5-1-1C28.1,47.4,28.6,47,29.1,47z M15.2,47c0.6,0,1,0.5,1,1c0,0.6-0.5,1-1,1c-0.6,0-1-0.5-1-1  C14.2,47.4,14.7,47,15.2,47z"></path><path xmlns="http://www.w3.org/2000/svg" d="M98.6,72.4c-0.3-1.3-0.3-3.4-0.3-5.8c0-7.7,0.1-19.4-8.8-33.3c0,0,0,0,0,0l-5.4-8.5c-0.9-1.5-2.4-2.5-4.1-2.9  c-1.7-0.4-3.5-0.1-5,0.9c0,0-0.1,0-0.1,0.1c-0.9,0.6-1.6,1.3-2.1,2.2c-0.8-0.6-1.7-1-2.6-1.2c-1.8-0.4-3.6-0.1-5.1,0.9  c-0.1,0-0.1,0.1-0.2,0.1c-1.1,0.8-2,1.8-2.5,3.1c-1.9-0.9-4.2-0.8-6.1,0.3c-0.1,0-0.2,0.1-0.3,0.1c-0.8,0.5-1.5,1.2-2,2l-8.7-13.7  c-1-1.6-2.7-2.8-4.6-3.2c-1.9-0.4-3.8-0.1-5.5,1c0,0,0,0-0.1,0.1c0,0-0.1,0-0.1,0c-1.6,1-2.8,2.7-3.2,4.6c-0.4,1.9-0.1,3.8,1,5.5  l14.5,22.9c-0.7,0.3-1.4,0.8-2.1,1.3c-0.3,0.2-0.7,0.5-1,0.7c0,0,0,0,0,0c-1.7,1.1-2.9,2.8-3.4,4.8s-0.1,4.1,1,5.8l5.1,8  c0.1,0.1,0.2,0.3,0.3,0.4c6.1,8.5,13.7,10.7,18.8,12.2c1.4,0.4,2.6,0.8,3.5,1.2c0.2,0.1,0.3,0.1,0.5,0.1c0,0,0,0,0,0  c2.4,0.5,3.1,1.7,4.4,3.8l0.5,0.7c0.4,0.6,1,0.9,1.7,0.9c0.4,0,0.7-0.1,1.1-0.3c0.9-0.6,1.2-1.8,0.6-2.7l-0.4-0.7  c-1.4-2.3-2.9-4.7-6.9-5.6c0,0,0,0,0,0c-1.1-0.5-2.3-0.8-3.8-1.2c-5.2-1.5-12.2-3.6-17.7-12.3l0,0L45.4,58c-0.5-0.8-0.7-1.8-0.5-2.8  c0.2-1,0.8-1.8,1.6-2.3c0,0,0,0,0,0c0.4-0.3,0.8-0.5,1.1-0.8c0.7-0.5,1.7-1.1,1.9-1.2c0,0,0.1,0.1,0.4,0.4l5.9,9.3  c0.4,0.6,1,0.9,1.7,0.9c0.4,0,0.7-0.1,1.1-0.3c0.9-0.6,1.2-1.8,0.6-2.7l-5.9-9.3c0,0,0,0,0,0c0,0,0,0,0,0l-17-26.7  c-0.5-0.7-0.6-1.6-0.4-2.5c0.2-0.9,0.7-1.6,1.5-2.1c0,0,0,0,0.1-0.1c0,0,0.1,0,0.1,0c0.7-0.5,1.6-0.6,2.5-0.4  c0.9,0.2,1.6,0.7,2.1,1.5l12,18.9l0,0l0,0l5.6,8.8c0.4,0.6,1,0.9,1.7,0.9c0.4,0,0.7-0.1,1.1-0.3c0.9-0.6,1.2-1.8,0.6-2.7l-5.6-8.8  c-0.8-1.3-0.4-3,0.9-3.9c0,0,0,0,0,0c1.3-0.8,3-0.4,3.9,0.9l5.6,8.8c0.4,0.6,1,0.9,1.7,0.9c0.4,0,0.7-0.1,1.1-0.3  c0.9-0.6,1.2-1.8,0.6-2.7L66.5,32c0,0,0,0,0,0c-0.4-0.6-0.5-1.4-0.4-2.1c0.2-0.7,0.6-1.4,1.2-1.8c0,0,0,0,0,0  c0.6-0.4,1.4-0.5,2.1-0.4c0.7,0.2,1.4,0.6,1.8,1.2l1.9,2.9c0,0,0,0,0,0c0,0,0,0,0,0l3.8,5.9c0.4,0.6,1,0.9,1.7,0.9  c0.4,0,0.7-0.1,1.1-0.3c0.9-0.6,1.2-1.8,0.6-2.7l-3.8-5.9l0,0c-0.4-0.6-0.5-1.3-0.3-2c0.2-0.7,0.6-1.3,1.1-1.6c0,0,0,0,0,0  c0.6-0.4,1.3-0.5,2-0.3c0.7,0.2,1.3,0.6,1.6,1.1l5.4,8.5c8.3,13,8.2,24,8.2,31.2c0,2.8,0,5,0.4,6.7c0.2,0.9,1,1.5,1.9,1.5  c0.2,0,0.3,0,0.5-0.1C98.2,74.5,98.9,73.4,98.6,72.4z"></path></g>
<g id="SvgjsG1267" featurekey="UxBHKT-0" transform="matrix(1.517450647717057,0,0,1.517450647717057,95.03034901510246,21.077389294188407)" fill="#f6f6f6"><path d="M-0.02 9.04 l3.32 0 l2.56 5.38 l2.56 -5.38 l3.34 0 l-5.9 11.44 z M12.379999999999999 18.54 l1.56 -2.08 q0.72 0.5 1.68 0.84 t1.88 0.34 q0.68 0 1.13 -0.28 t0.45 -0.7 t-0.51 -0.59 t-0.99 -0.24 t-0.62 -0.09 q-1.2 -0.2 -2.07 -0.48 t-1.58 -1 t-0.71 -1.98 q0 -2.08 1.51 -2.78 t3.03 -0.7 q1.3 0 2.4 0.38 t2.18 1.2 l-1.56 2.04 q-0.78 -0.46 -1.54 -0.74 t-1.58 -0.28 q-0.5 0 -0.97 0.22 t-0.47 0.6 q0 0.48 0.65 0.68 t1.43 0.3 q1.4 0.24 2.24 0.5 t1.49 0.97 t0.65 2.01 q0 1.72 -1.18 2.65 t-3.34 0.93 q-3 0 -5.16 -1.72 z M28.14 16.08 q0 0.7 0.24 1.17 t1.12 0.47 q0.4 0 0.76 -0.04 l0 2.52 q-0.72 0.08 -1.34 0.08 q-1.28 0 -2.07 -0.21 t-1.23 -0.81 t-0.44 -1.72 l0 -6.1 l-1.34 0 l0 -2.62 l1.34 0 l0 -2.94 l2.96 0 l0 2.94 l2.2 0 l0 2.62 l-2.2 0 l0 4.64 z M35.089999999999996 19.49 q-1.37 -0.77 -2.17 -2.09 t-0.8 -2.88 q0 -1.54 0.8 -2.86 t2.17 -2.09 t2.99 -0.77 t3 0.77 t2.19 2.09 t0.81 2.86 q0 1.56 -0.81 2.88 t-2.19 2.09 t-3 0.77 t-2.99 -0.77 z M36.559999999999995 11.83 q-0.7 0.41 -1.1 1.12 t-0.4 1.57 q0 0.9 0.39 1.61 t1.08 1.12 t1.55 0.41 q0.84 0 1.53 -0.41 t1.09 -1.13 t0.4 -1.6 q0 -0.86 -0.4 -1.57 t-1.09 -1.12 t-1.53 -0.41 q-0.82 0 -1.52 0.41 z M51.76 11.87 q-0.86 0.21 -1.58 0.99 t-0.72 2.28 l0 4.86 l-2.98 0 l0 -11 l2.98 0 l0 1.46 q0.74 -0.98 1.81 -1.33 t1.95 -0.33 l0 2.92 q-0.6 -0.06 -1.46 0.15 z M57.49 19.74 q-1.37 -0.54 -2.35 -1.83 t-0.98 -3.37 t0.99 -3.36 t2.37 -1.82 t2.62 -0.54 q1.44 0 2.74 0.64 t2.13 1.88 t0.87 2.94 q0 0.52 -0.02 0.9 t-0.04 0.48 l-8.68 0 q0.24 1.16 1.2 1.58 t1.8 0.42 q1.08 0 1.72 -0.39 t1.1 -0.89 l2.32 1.34 q-1.88 2.56 -5.14 2.56 q-1.28 0 -2.65 -0.54 z M58.1 12.05 q-0.78 0.61 -0.88 1.49 l5.5 0 q-0.06 -0.52 -0.4 -1 t-0.91 -0.79 t-1.29 -0.31 q-1.24 0 -2.02 0.61 z"></path></g>
</svg>